<svg id="Capa_1" enable-background="new 0 0 497 497" height="512" viewBox="0 0 497 497" width="512" xmlns="http://www.w3.org/2000/svg"><g><path d="m248.5 0c-11.078 0-21.985.728-32.679 2.134-2.921.384-5.357 2.418-6.227 5.233l-14.594 47.253h107l-14.594-47.254c-.869-2.815-3.306-4.849-6.227-5.233-10.694-1.405-21.601-2.133-32.679-2.133z" fill="#95b0ed"/><path d="m209.594 489.634c.869 2.815 3.306 4.849 6.227 5.233 10.694 1.405 21.601 2.133 32.679 2.133s21.985-.728 32.679-2.134c2.921-.384 5.357-2.418 6.227-5.233l14.594-47.253h-107z" fill="#7d8fe5"/><path d="m72.784 72.784c-7.833 7.833-15.031 16.06-21.599 24.616-1.794 2.337-2.078 5.498-.703 8.103l23.094 43.733 75.66-75.66-43.733-23.094c-2.605-1.376-5.767-1.091-8.103.703-8.556 6.568-16.783 13.766-24.616 21.599z" fill="#95b0ed"/><path d="m347.763 423.424 43.733 23.094c2.605 1.375 5.767 1.091 8.103-.703 8.556-6.568 16.783-13.766 24.616-21.599s15.031-16.06 21.599-24.616c1.794-2.337 2.078-5.498.703-8.103l-23.094-43.733z" fill="#7d8fe5"/><path d="m54.62 195-47.254 14.594c-2.815.869-4.849 3.306-5.233 6.227-1.405 10.694-2.133 21.601-2.133 32.679s.728 21.985 2.134 32.679c.384 2.921 2.418 5.357 5.233 6.227l47.253 14.594z" fill="#95b0ed"/><path d="m489.634 209.594-47.254-14.594v107l51.805-16c1.851-12.231 2.815-24.753 2.815-37.5 0-11.078-.728-21.985-2.134-32.679-.383-2.92-2.418-5.357-5.232-6.227z" fill="#7d8fe5"/><path d="m50.482 391.497c-1.376 2.605-1.091 5.767.703 8.103 6.568 8.556 13.766 16.783 21.599 24.616s16.06 15.031 24.616 21.599c2.337 1.794 5.498 2.078 8.103.703l43.733-23.094-75.66-75.66z" fill="#95b0ed"/><path d="m446.518 105.503c1.376-2.605 1.091-5.767-.703-8.103-6.568-8.556-13.766-16.783-21.599-24.616s-16.06-15.031-24.616-21.599c-2.337-1.794-5.498-2.078-8.103-.703l-43.733 23.094 75.66 75.66z" fill="#7d8fe5"/><circle cx="248.5" cy="248.5" fill="#95b0ed" r="218.5"/><circle cx="248.5" cy="248.5" fill="#666ddc" r="188.5"/><path d="m248.5 90v317c87.537 0 158.5-70.963 158.5-158.5s-70.963-158.5-158.5-158.5z" fill="#14cfff"/><path d="m377 248.5c0-87.537-57.531-158.5-128.5-158.5-87.537 0-158.5 70.963-158.5 158.5s70.963 158.5 158.5 158.5c70.969 0 128.5-70.963 128.5-158.5z" fill="#6ce1ff"/><path d="m248.5 150v197c54.4 0 98.5-44.1 98.5-98.5s-44.1-98.5-98.5-98.5z" fill="#ff545a"/><path d="m317 248.5c0-54.4-30.669-98.5-68.5-98.5-54.4 0-98.5 44.1-98.5 98.5s44.1 98.5 98.5 98.5c37.831 0 68.5-44.1 68.5-98.5z" fill="#ff7647"/><path d="m248.5 210v77c21.263 0 38.5-17.237 38.5-38.5s-17.237-38.5-38.5-38.5z" fill="#ffe7b5"/><path d="m257 248.5c0-21.263-3.806-38.5-8.5-38.5-21.263 0-38.5 17.237-38.5 38.5s17.237 38.5 38.5 38.5c4.694 0 8.5-17.237 8.5-38.5z" fill="#fff"/></g></svg>