<svg id="Capa_1" enable-background="new 0 0 512.072 512.072" height="512" viewBox="0 0 512.072 512.072" width="512" xmlns="http://www.w3.org/2000/svg"><g><path d="m437.388 180.949-44.185-4.731 38.224-95.559-95.558 38.224-4.731-44.185-34.198 27.583-40.932-102.211-40.932 102.21-34.196-27.583-4.732 44.186-95.559-38.224 38.224 95.559-44.185 4.731 27.582 34.197-102.21 40.932 102.21 40.932-27.582 34.197 44.185 4.731-38.224 95.559 95.559-38.224 4.732 44.186 34.2-27.586 40.928 102.13 40.928-102.13 34.202 27.586 4.731-44.185 95.558 38.224-38.224-95.559 44.185-4.731-27.58-34.194 102.265-40.935-102.265-40.935zm-6.044 75.129-70.374 28.169 18.539 22.986-28.862 3.091 26.929 67.321-67.321-26.929-3.091 28.863-22.979-18.535-28.176 70.309-28.176-70.309-22.979 18.535-3.09-28.863-67.322 26.929 26.929-67.321-28.862-3.091 18.537-22.983-70.348-28.172 70.348-28.172-18.537-22.983 28.862-3.091-26.929-67.321 67.322 26.929 3.09-28.863 22.983 18.538 28.172-70.348 28.172 70.348 22.983-18.538 3.091 28.863 67.321-26.929-26.929 67.321 28.862 3.091-18.539 22.986z"/><path d="m211.008 286.078c0 8.271-6.729 15-15 15h-15v30h15c24.813 0 45-20.187 45-45v-49.188l60-20v39.188c0 8.271-6.729 15-15 15h-15v30h15c24.813 0 45-20.187 45-45v-80.811l-120 40z"/></g></svg>