<svg height="512" viewBox="0 0 60 44" width="512" xmlns="http://www.w3.org/2000/svg"><g id="Page-1" fill="none" fill-rule="evenodd"><g id="048---Volume" fill-rule="nonzero"><path id="Shape" d="m25 10v24h-16c-2.209139 0-4-1.790861-4-4v-16c0-2.209139 1.790861-4 4-4z" fill="#3f51b5"/><path id="Rectangle-path" d="m22 10h3v24h-3z" fill="#283593"/><path id="Shape" d="m5 15v14h-2c-1.10320187-.0032948-1.9967052-.8967981-2-2v-10c.0032948-1.1032019.89679813-1.9967052 2-2z" fill="#9e9e9e"/><path id="Shape" d="m38 4.06v35.88c-.0018263.7612046-.4356029 1.4553782-1.1189747 1.7906972-.6833717.3353191-1.4978456.2536412-2.1010253-.2106972l-9.78-7.52v-24l9.78-7.52c.6031797-.46433835 1.4176536-.54601628 2.1010253-.21069722.6833718.33531907 1.1171484 1.02949259 1.1189747 1.79069722z" fill="#02a9f4"/><path id="Shape" d="m34.78 2.48-.313.241c.342397.36172738.5331441.84092134.533 1.339v35.88c.0001441.4980787-.190603.9772726-.533 1.339l.313.241c.6031797.4643384 1.4176536.5460163 2.1010253.2106972.6833718-.335319 1.1171484-1.0294926 1.1189747-1.7906972v-35.88c-.0018263-.76120463-.4356029-1.45537815-1.1189747-1.79069722-.6833717-.33531906-1.4978456-.25364113-2.1010253.21069722z" fill="#0377bc"/><g fill="#f5f5f5"><path id="Shape" d="m12 31h-2c-1.1045695 0-2-.8954305-2-2v-2c0-.5522847.44771525-1 1-1s1 .4477153 1 1v2h2c.5522847 0 1 .4477153 1 1s-.4477153 1-1 1z"/><path id="Shape" d="m17 31h-1c-.5522847 0-1-.4477153-1-1s.4477153-1 1-1h1c.5522847 0 1 .4477153 1 1s-.4477153 1-1 1z"/><path id="Shape" d="m21 15h-2c-.5522847 0-1-.4477153-1-1s.4477153-1 1-1h2c.5522847 0 1 .4477153 1 1s-.4477153 1-1 1z"/><path id="Shape" d="m15 15h-4c-.5522847 0-1-.4477153-1-1s.4477153-1 1-1h4c.5522847 0 1 .4477153 1 1s-.4477153 1-1 1z"/><path id="Shape" d="m34 11c-.5522847 0-1-.4477153-1-1v-2c0-.55228475.4477153-1 1-1s1 .44771525 1 1v2c0 .5522847-.4477153 1-1 1z"/><path id="Shape" d="m34 25c-.5522847 0-1-.4477153-1-1v-10c0-.5522847.4477153-1 1-1s1 .4477153 1 1v10c0 .5522847-.4477153 1-1 1z"/></g><path id="Shape" d="m48.741 44c-.4239829.0003121-.8020774-.2667783-.9434814-.6664863-.141404-.3997081-.0153775-.8451404.3144814-1.1115137 6.141094-4.8750031 9.7699573-12.2488757 9.8862141-20.0888486s-3.2923686-15.31820262-9.2862141-20.3731514c-.2715218-.23222263-.3985291-.59166038-.3331793-.94291651.0653498-.35125614.3131284-.6409665.65-.76s.7116575-.04930612.9831793.18291651c6.4453203 5.44151007 10.1102269 13.4869678 9.9856638 21.9212235s-4.0254614 16.3679762-10.6286638 21.6167765c-.1774904.1441678-.3993368.2225912-.628.222z" fill="#e91e63"/><path id="Shape" d="m46.27 38c-.4106603-.000155-.7794799-.2513581-.9300143-.6334331-.1505345-.382075-.0521784-.8173416.2480143-1.0975669 3.9867723-3.6438596 6.303923-8.763857 6.4101514-14.1639293.1062285-5.4000724-2.0077696-10.6072379-5.8481514-14.4050707-.2834965-.24644875-.4049658-.63098544-.3144847-.99556798.0904811-.36458255.3776482-.647705.7434774-.73300587s.7486044.0416103.9910073.32857385c4.2204011 4.1816204 6.5427865 9.9100899 6.4258187 15.850128-.1169678 5.9400382-2.6630689 11.5726402-7.0448187 15.584872-.1850646.1716826-.4285683.266438-.681.265z" fill="#e91e63"/><path id="Shape" d="m43.969 32c-.3787721 0-.7250352-.2140024-.8944272-.5527864s-.132836-.744196.0944272-1.0472136c3.7721474-4.9625456 3.7721474-11.8314544 0-16.794-.3330277-.4418278-.2448278-1.0699723.197-1.403s1.0699723-.2448278 1.403.197c4.3080863 5.6772418 4.3080863 13.5287582 0 19.206-.1907113.2488077-.4865102.3944887-.8.394z" fill="#e91e63"/><path id="Shape" d="m3 30h1c.00330612 2.7600532 2.23994685 4.9966939 5 5h15.66l9.511 7.316c.9059152.6967777 2.1290352.8182992 3.1543419.3133956 1.0253068-.5049036 1.6746681-1.5485126 1.6746581-2.6913956v-35.876c.00001-1.142883-.6493513-2.186492-1.6746581-2.69139559-1.0253067-.50490359-2.2484267-.38338208-3.1543419.31339559l-9.511 7.316h-15.66c-2.76005315.00330612-4.99669388 2.2399468-5 5h-1c-1.65685425 0-3 1.3431458-3 3v10c0 1.6568542 1.34314575 3 3 3zm3-16c0-1.6568542 1.34314575-3 3-3h15v13c0 .5522847.4477153 1 1 1s1-.4477153 1-1v-13.508l9.39-7.222c.3018755-.2323874.7095675-.27306524 1.051408-.10490519s.5584391.51594231.558592.89690519v35.876c-.0001529.3809629-.2167515.7287451-.558592.8969052-.3418405.16816-.7495325.1274822-1.051408-.1049052l-9.39-7.222v-2.508c0-.5522847-.4477153-1-1-1s-1 .4477153-1 1v2h-15c-1.65685425 0-3-1.3431458-3-3zm-4 3c0-.5522847.44771525-1 1-1h1v12h-1c-.55228475 0-1-.4477153-1-1z" fill="#000"/></g></g></svg>